<svg width="23" height="22" viewBox="0 0 23 22" fill="none" xmlns="http://www.w3.org/2000/svg">
<path d="M11.3787 7.19127C9.41527 7.19127 7.81298 8.79355 7.81298 10.757C7.81298 12.7204 9.41527 14.3226 11.3787 14.3226C13.3421 14.3226 14.9444 12.7204 14.9444 10.757C14.9444 8.79355 13.3421 7.19127 11.3787 7.19127ZM22.073 10.757C22.073 9.28039 22.0864 7.8172 22.0035 6.34331C21.9206 4.63136 21.53 3.112 20.2782 1.86013C19.0236 0.605585 17.5069 0.21772 15.795 0.134797C14.3184 0.0518741 12.8552 0.0652488 11.3813 0.0652488C9.90478 0.0652488 8.44159 0.0518741 6.9677 0.134797C5.25575 0.21772 3.73639 0.60826 2.48452 1.86013C1.22997 3.11467 0.84211 4.63136 0.759187 6.34331C0.676264 7.81988 0.689638 9.28306 0.689638 10.757C0.689638 12.2308 0.676264 13.6967 0.759187 15.1706C0.84211 16.8825 1.23265 18.4019 2.48452 19.6538C3.73906 20.9083 5.25575 21.2962 6.9677 21.3791C8.44427 21.462 9.90745 21.4487 11.3813 21.4487C12.8579 21.4487 14.3211 21.462 15.795 21.3791C17.5069 21.2962 19.0263 20.9056 20.2782 19.6538C21.5327 18.3992 21.9206 16.8825 22.0035 15.1706C22.0891 13.6967 22.073 12.2335 22.073 10.757ZM11.3787 16.2432C8.34262 16.2432 5.89238 13.793 5.89238 10.757C5.89238 7.7209 8.34262 5.27067 11.3787 5.27067C14.4147 5.27067 16.865 7.7209 16.865 10.757C16.865 13.793 14.4147 16.2432 11.3787 16.2432ZM17.0896 6.32726C16.3808 6.32726 15.8084 5.75483 15.8084 5.04597C15.8084 4.33712 16.3808 3.76468 17.0896 3.76468C17.7985 3.76468 18.3709 4.33712 18.3709 5.04597C18.3712 5.21429 18.3382 5.381 18.2738 5.53655C18.2095 5.6921 18.1152 5.83343 17.9961 5.95245C17.8771 6.07148 17.7358 6.16585 17.5802 6.23016C17.4247 6.29448 17.258 6.32748 17.0896 6.32726Z" fill="#FCFCFC"/>
</svg>
