<svg width="23" height="15" viewBox="0 0 23 15" fill="none" xmlns="http://www.w3.org/2000/svg">
<path d="M22.3456 1.88474C22.5054 1.35403 22.3456 0.964844 21.5901 0.964844H19.0872C18.4503 0.964844 18.1593 1.30153 17.9995 1.67131C17.9995 1.67131 16.727 4.77452 14.9237 6.78664C14.3416 7.37213 14.0757 7.55702 13.7584 7.55702C13.5998 7.55702 13.3692 7.37213 13.3692 6.84142V1.88474C13.3692 1.24789 13.1855 0.964844 12.6548 0.964844H8.72185C8.32467 0.964844 8.085 1.2593 8.085 1.54006C8.085 2.14267 8.98663 2.28191 9.07908 3.98017V7.6643C9.07908 8.4712 8.93413 8.61843 8.61457 8.61843C7.76658 8.61843 5.7031 5.50381 4.47848 1.93838C4.23995 1.2456 3.99913 0.965986 3.36 0.965986H0.858261C0.142663 0.965986 0 1.30267 0 1.67245C0 2.33669 0.847989 5.62365 3.95005 9.97088C6.0181 12.9394 8.92957 14.5486 11.582 14.5486C13.1718 14.5486 13.3681 14.1914 13.3681 13.5751V11.3313C13.3681 10.6169 13.5199 10.4731 14.0232 10.4731C14.393 10.4731 15.0298 10.6602 16.5147 12.0903C18.2107 13.7863 18.4914 14.5475 19.4444 14.5475H21.9461C22.6606 14.5475 23.0178 14.1903 22.8124 13.485C22.5876 12.783 21.7772 11.7616 20.7021 10.5529C20.1178 9.86359 19.2447 9.12175 18.9788 8.75082C18.6078 8.27262 18.7151 8.06148 18.9788 7.63691C18.9799 7.63805 22.0283 3.34446 22.3456 1.88474Z" fill="#FCFCFC"/>
</svg>
