<svg width="45" height="45" viewBox="0 0 45 45" fill="none" xmlns="http://www.w3.org/2000/svg">
<path d="M0 35.6836V39.375C0 42.5391 7.55859 45 16.875 45C26.1914 45 33.75 42.5391 33.75 39.375V35.6836C30.0586 38.2324 23.4668 39.375 16.875 39.375C10.1953 39.375 3.60352 38.2324 0 35.6836ZM28.125 11.25C37.4414 11.25 45 8.78906 45 5.625C45 2.54883 37.4414 0 28.125 0C18.8086 0 11.25 2.54883 11.25 5.625C11.25 8.78906 18.8086 11.25 28.125 11.25ZM0 26.4551V30.9375C0 34.1016 7.55859 36.5625 16.875 36.5625C26.1914 36.5625 33.75 34.1016 33.75 30.9375V26.4551C30.0586 29.4434 23.4668 30.9375 16.875 30.9375C10.1953 30.9375 3.60352 29.4434 0 26.4551ZM36.5625 27.4219C41.5723 26.4551 45 24.6094 45 22.5V18.8086C42.8906 20.2148 39.9023 21.1816 36.5625 21.7969V27.4219ZM16.875 14.0625C7.55859 14.0625 0 17.2266 0 21.0938C0 25.0488 7.55859 28.125 16.875 28.125C26.1914 28.125 33.75 25.0488 33.75 21.0938C33.75 17.2266 26.1914 14.0625 16.875 14.0625ZM36.123 19.0723C41.3965 18.1055 45 16.2598 45 14.0625V10.3711C41.8359 12.5684 36.4746 13.7109 30.8496 14.0625C33.3984 15.293 35.332 16.9629 36.123 19.0723Z" fill="#2C79CA"/>
</svg>
