<svg width="57" height="34" viewBox="0 0 57 34" fill="none" xmlns="http://www.w3.org/2000/svg">
<path d="M54.6899 7.88818L30.1685 0.32959C28.8501 -0.109863 27.356 -0.109863 26.0376 0.32959L1.51611 7.88818C-0.505371 8.50342 -0.505371 11.228 1.51611 11.8433L5.82275 13.1616C4.85596 14.3042 4.32861 15.7983 4.24072 17.2925C3.36182 17.8198 2.83447 18.6987 2.83447 19.6655C2.83447 20.6323 3.27393 21.4233 3.97705 21.9507L1.77979 32.0581C1.604 32.937 2.21924 33.728 3.09814 33.728H8.10791C8.98682 33.728 9.60205 32.937 9.42627 32.0581L7.229 21.9507C7.93213 21.4233 8.45947 20.6323 8.45947 19.6655C8.45947 18.6987 7.84424 17.8198 7.05322 17.3804C7.14111 16.062 7.75635 14.8315 8.89893 14.1284L26.0376 19.4019C26.8286 19.6655 28.4106 19.9292 30.1685 19.4019L54.6899 11.8433C56.7114 11.228 56.7114 8.50342 54.6899 7.88818ZM30.9595 22.1265C28.4985 22.8296 26.3013 22.478 25.2466 22.1265L12.5024 18.1714L11.272 28.103C11.272 31.2671 18.7427 33.728 28.147 33.728C37.4634 33.728 45.022 31.2671 45.022 28.103L43.7036 18.1714L30.9595 22.1265Z" fill="#2C79CA"/>
</svg>
