<svg width="45" height="42" viewBox="0 0 45 42" fill="none" xmlns="http://www.w3.org/2000/svg">
<path d="M45 8.90625C45 8.625 44.7188 8.34375 44.5313 8.25L22.7813 0C22.6875 0 22.5938 0 22.4063 0C22.3125 0 22.2188 0 22.125 0L0.375 8.25C0.1875 8.34375 0 8.625 0 8.90625V10.4063C0 10.875 0.28125 11.1563 0.75 11.1563H3V12.2813C3 12.9375 3.46875 13.4063 4.125 13.4063H40.875C41.4375 13.4063 42 12.9375 42 12.2813V11.1563H44.25C44.625 11.1563 45 10.875 45 10.4063V8.90625ZM42.75 37.4063H2.25C0.9375 37.4063 0 38.4375 0 39.6563V41.1563C0 41.625 0.28125 41.9063 0.75 41.9063H44.25C44.625 41.9063 45 41.625 45 41.1563V39.6563C45 38.4375 43.9688 37.4063 42.75 37.4063ZM7.5 14.9063V32.9062H4.125C3.46875 32.9062 3 33.4688 3 34.0312V35.9062H42V34.0312C42 33.4688 41.4375 32.9062 40.875 32.9062H37.5V14.9063H31.5V32.9062H25.5V14.9063H19.5V32.9062H13.5V14.9063H7.5Z" fill="#2C79CA"/>
</svg>
