<svg width="40" height="45" viewBox="0 0 40 45" fill="none" xmlns="http://www.w3.org/2000/svg">
<path d="M39.375 43.2422C39.375 42.7148 38.8477 42.1875 38.3203 42.1875H36.5625V10.5469C36.5625 9.4043 35.5957 8.4375 34.4531 8.4375H26.7188V2.10938C26.7188 0.966797 25.752 0 24.6094 0H14.7656C13.5352 0 12.6562 0.966797 12.6562 2.10938V8.4375H4.92188C3.69141 8.4375 2.8125 9.4043 2.8125 10.5469V42.1875H1.05469C0.439453 42.1875 0 42.7148 0 43.2422V45H39.375V43.2422ZM27.0703 16.875C27.5977 16.875 28.125 17.4023 28.125 17.9297V21.4453C28.125 22.0605 27.5977 22.5 27.0703 22.5H23.5547C22.9395 22.5 22.5 22.0605 22.5 21.4453V17.9297C22.5 17.4023 22.9395 16.875 23.5547 16.875H27.0703ZM12.3047 22.5C11.6895 22.5 11.25 22.0605 11.25 21.4453V17.9297C11.25 17.4023 11.6895 16.875 12.3047 16.875H15.8203C16.3477 16.875 16.875 17.4023 16.875 17.9297V21.4453C16.875 22.0605 16.3477 22.5 15.8203 22.5H12.3047ZM21.4453 33.75C21.9727 33.75 22.5 34.2773 22.5 34.8047V42.1875H16.875V34.8047C16.875 34.2773 17.3145 33.75 17.9297 33.75H21.4453ZM27.0703 25.3125C27.5977 25.3125 28.125 25.8398 28.125 26.3672V29.8828C28.125 30.498 27.5977 30.9375 27.0703 30.9375H23.5547C22.9395 30.9375 22.5 30.498 22.5 29.8828V26.3672C22.5 25.8398 22.9395 25.3125 23.5547 25.3125H27.0703ZM16.875 26.3672V29.8828C16.875 30.498 16.3477 30.9375 15.8203 30.9375H12.3047C11.6895 30.9375 11.25 30.498 11.25 29.8828V26.3672C11.25 25.8398 11.6895 25.3125 12.3047 25.3125H15.8203C16.3477 25.3125 16.875 25.8398 16.875 26.3672ZM15.9961 8.4375C15.6445 8.4375 15.4688 8.26172 15.4688 7.91016V6.15234C15.4688 5.88867 15.6445 5.625 15.9961 5.625H18.2812V3.33984C18.2812 3.07617 18.457 2.8125 18.8086 2.8125H20.5664C20.8301 2.8125 21.0938 3.07617 21.0938 3.33984V5.625H23.3789C23.6426 5.625 23.9062 5.88867 23.9062 6.15234V7.91016C23.9062 8.26172 23.6426 8.4375 23.3789 8.4375H21.0938V10.7227C21.0938 11.0742 20.8301 11.25 20.5664 11.25H18.8086C18.457 11.25 18.2812 11.0742 18.2812 10.7227V8.4375H15.9961Z" fill="#2C79CA"/>
</svg>
