<svg width="57" height="45" viewBox="0 0 57 45" fill="none" xmlns="http://www.w3.org/2000/svg">
<path d="M21.0938 0H8.61328C6.76758 0 5.18555 1.23047 4.6582 2.90039L0.175781 16.2598C0.0878906 16.4355 0.0878906 16.6992 0.0878906 16.875H21.0938V0ZM41.748 7.20703L40.2539 2.90039C39.7266 1.23047 38.1445 0 36.2988 0H23.9062V13.8867C27.6855 9.66797 33.2227 7.03125 39.375 7.03125C40.166 7.03125 40.957 7.11914 41.748 7.20703ZM18.2812 28.125C18.2812 25.1367 18.8965 22.3242 20.0391 19.6875H0V40.7812C0 43.1543 1.8457 45 4.21875 45H26.7188C21.6211 41.2207 18.2812 35.0684 18.2812 28.125ZM39.375 11.25C30.0586 11.25 22.5 18.8086 22.5 28.125C22.5 37.4414 30.0586 45 39.375 45C48.6914 45 56.25 37.4414 56.25 28.125C56.25 18.8086 48.6914 11.25 39.375 11.25ZM49.3945 24.2578L37.8809 35.6836C37.4414 36.123 36.8262 36.123 36.4746 35.6836L29.7949 29.0039C29.4434 28.6523 29.4434 28.0371 29.7949 27.5977L32.0801 25.3125C32.5195 24.9609 33.1348 24.9609 33.4863 25.4004L37.1777 29.0918L45.7031 20.6543C46.1426 20.2148 46.7578 20.2148 47.1094 20.6543L49.3945 22.9395C49.7461 23.291 49.7461 23.9062 49.3945 24.2578Z" fill="#2C79CA"/>
</svg>
