<svg width="57" height="46" viewBox="0 0 57 46" fill="none" xmlns="http://www.w3.org/2000/svg">
<path d="M22.5 20.0151C22.5 20.0151 13.4473 19.3999 8.17383 23.6186C6.24023 25.2007 4.6582 28.5405 3.33984 32.2319L8.61328 30.2983C9.14062 30.0347 9.58008 30.6499 9.22852 31.0893L0.966797 40.9331C0.263672 43.8335 0 45.855 0 45.855C0 45.855 18.1055 46.9976 23.3789 42.8667C28.6523 38.6479 30.1465 29.5952 30.1465 29.5952L22.5 20.0151ZM55.8984 3.75536L54.1406 1.5581C53.7012 0.942865 52.8223 0.767084 52.207 1.29443L31.7285 16.939L28.7402 13.1597C28.3008 12.5444 27.4219 12.7202 27.1582 13.3354L24.873 18.1694L32.5195 27.7495L37.7051 26.6069C38.4082 26.519 38.6719 25.6401 38.2324 25.1128L35.2441 21.3335L55.6348 5.68896C56.25 5.16161 56.4258 4.28271 55.8984 3.75536Z" fill="#2C79CA"/>
</svg>
