<svg width="57" height="45" viewBox="0 0 57 45" fill="none" xmlns="http://www.w3.org/2000/svg">
<path d="M45.0454 16.7651C45.9243 16.9409 46.8911 16.9409 47.77 16.7651L48.561 18.0835C48.8246 18.5229 49.352 18.6987 49.8793 18.5229C50.8461 18.1714 51.8129 17.5562 52.6918 16.9409C53.0434 16.5894 53.2192 15.9741 52.9555 15.5347L52.1645 14.3042C52.7797 13.6011 53.3071 12.7222 53.5707 11.8433H55.0649C55.5922 11.8433 56.0317 11.4917 56.1196 10.9644C56.2954 9.82178 56.2954 8.76709 56.1196 7.7124C56.0317 7.18506 55.5922 6.74561 55.0649 6.74561H53.5707C53.3071 5.8667 52.7797 5.07568 52.1645 4.37256L52.9555 3.14209C53.2192 2.61475 53.0434 2.0874 52.6918 1.73584C51.8129 1.03271 50.8461 0.505371 49.8793 0.065918C49.352 -0.109863 48.8246 0.065918 48.561 0.593262L47.77 1.82373C46.8911 1.64795 45.9243 1.64795 45.0454 1.82373L44.2543 0.593262C43.9907 0.065918 43.4633 -0.109863 42.936 0.065918C41.9692 0.505371 41.0024 1.03271 40.1235 1.73584C39.7719 2.0874 39.5961 2.61475 39.8598 3.14209L40.6508 4.37256C40.0356 5.07568 39.5082 5.8667 39.2446 6.74561H37.7504C37.2231 6.74561 36.7836 7.18506 36.6957 7.7124C36.52 8.76709 36.52 9.90967 36.6957 10.9644C36.7836 11.4917 37.2231 11.8433 37.7504 11.8433H39.2446C39.5082 12.7222 40.0356 13.6011 40.6508 14.3042L39.8598 15.5347C39.5961 15.9741 39.7719 16.5894 40.1235 16.9409C41.0024 17.5562 41.9692 18.1714 42.936 18.5229C43.4633 18.6987 43.9907 18.5229 44.2543 18.0835L45.0454 16.7651ZM44.0786 11.6675C41.5297 8.23975 45.309 4.37256 48.7368 7.00928C51.3735 10.3491 47.5063 14.2163 44.0786 11.6675ZM33.9711 25.2026C34.3227 23.3569 34.3227 21.4233 33.9711 19.5776L36.9594 18.0835C37.8383 17.5562 38.1899 16.5015 37.8383 15.5347C37.0473 13.4253 35.5532 11.4917 34.059 9.73389C33.4438 8.94287 32.3012 8.76709 31.4223 9.29443L28.8735 10.7886C27.4672 9.55811 25.7973 8.59131 24.0395 7.97607V5.07568C24.0395 4.021 23.3364 3.14209 22.2817 2.96631C20.0844 2.61475 17.7993 2.61475 15.602 2.96631C14.6352 3.14209 13.9321 4.021 13.9321 5.07568V7.97607C12.0864 8.59131 10.5043 9.55811 9.09809 10.7886L6.54926 9.29443C5.58246 8.76709 4.52777 9.03076 3.82465 9.73389C2.4184 11.4917 0.924258 13.4253 0.133242 15.5347C-0.21832 16.5015 0.133242 17.5562 1.10004 18.0835L4.00043 19.5776C3.64887 21.4233 3.64887 23.3569 4.00043 25.2026L1.10004 26.6089C0.133242 27.1362 -0.21832 28.2788 0.133242 29.1577C0.924258 31.355 2.4184 33.2886 3.82465 34.9585C4.52777 35.7495 5.67035 35.9253 6.54926 35.3979L9.09809 33.9917C10.5043 35.1343 12.0864 36.1011 13.9321 36.7163V39.7046C13.9321 40.7593 14.6352 41.6382 15.6899 41.814C17.8871 42.1655 20.1723 42.1655 22.2817 41.814C23.3364 41.6382 24.0395 40.7593 24.0395 39.7046V36.7163C25.7973 36.1011 27.4672 35.1343 28.8735 33.9917L31.4223 35.4858C32.3012 35.9253 33.4438 35.7495 34.059 34.9585C35.5532 33.2886 37.0473 31.355 37.8383 29.1577C38.1899 28.1909 37.8383 27.1362 36.9594 26.6089L33.9711 25.2026ZM23.6 27.0483C16.8325 32.2339 9.09809 24.4995 14.3715 17.7319C21.1391 12.5464 28.7856 20.2808 23.6 27.0483ZM45.0454 43.0444C45.9243 43.2202 46.8911 43.2202 47.77 43.0444L48.561 44.3628C48.8246 44.8022 49.352 44.978 49.8793 44.8022C50.8461 44.4507 51.8129 43.8354 52.6918 43.1323C53.0434 42.8687 53.2192 42.2534 52.9555 41.814L52.1645 40.4956C52.7797 39.7925 53.3071 39.0015 53.5707 38.1226H55.0649C55.5922 38.1226 56.0317 37.771 56.1196 37.2437C56.2954 36.1011 56.2954 35.0464 56.1196 33.9917C56.0317 33.4644 55.5922 33.0249 55.0649 33.0249H53.5707C53.3071 32.146 52.7797 31.355 52.1645 30.6519L52.9555 29.4214C53.2192 28.894 53.0434 28.3667 52.6918 28.0151C51.8129 27.312 50.8461 26.7847 49.8793 26.3452C49.352 26.1694 48.8246 26.3452 48.561 26.8726L47.77 28.103C46.8911 27.9272 45.9243 27.9272 45.0454 28.103L44.2543 26.8726C43.9907 26.3452 43.4633 26.1694 42.936 26.3452C41.9692 26.7847 41.0024 27.312 40.1235 28.0151C39.7719 28.3667 39.5961 28.894 39.8598 29.4214L40.6508 30.6519C40.0356 31.355 39.5082 32.146 39.2446 33.0249H37.7504C37.2231 33.0249 36.7836 33.4644 36.6957 33.9917C36.52 35.0464 36.52 36.189 36.6957 37.2437C36.7836 37.771 37.2231 38.1226 37.7504 38.1226H39.2446C39.5082 39.0015 40.0356 39.7925 40.6508 40.4956L39.8598 41.814C39.5961 42.2534 39.7719 42.8687 40.1235 43.1323C41.0024 43.8354 41.9692 44.4507 42.936 44.8022C43.4633 44.978 43.9907 44.8022 44.2543 44.3628L45.0454 43.0444ZM44.0786 37.8589C41.5297 34.519 45.309 30.6519 48.7368 33.2886C51.3735 36.6284 47.5063 40.4956 44.0786 37.8589Z" fill="#2C79CA"/>
</svg>
