<svg width="57" height="45" viewBox="0 0 57 45" fill="none" xmlns="http://www.w3.org/2000/svg">
<path d="M54.1406 16.875H42.1875V2.10938C42.1875 0.966797 41.2207 0 40.0781 0H27.4219C26.1914 0 25.3125 0.966797 25.3125 2.10938V8.4375H19.6875V1.40625C19.6875 0.703125 18.9844 0 18.2812 0H16.875C16.084 0 15.4688 0.703125 15.4688 1.40625V8.4375H9.84375V1.40625C9.84375 0.703125 9.14062 0 8.4375 0H7.03125C6.24023 0 5.625 0.703125 5.625 1.40625V8.4375H2.10938C0.878906 8.4375 0 9.4043 0 10.5469V42.1875C0 43.7695 1.23047 45 2.8125 45H53.4375C54.9316 45 56.25 43.7695 56.25 42.1875V18.9844C56.25 17.8418 55.2832 16.875 54.1406 16.875ZM11.25 35.5078C11.25 36.123 10.7227 36.5625 10.1953 36.5625H6.67969C6.06445 36.5625 5.625 36.123 5.625 35.5078V31.9922C5.625 31.4648 6.06445 30.9375 6.67969 30.9375H10.1953C10.7227 30.9375 11.25 31.4648 11.25 31.9922V35.5078ZM11.25 27.0703C11.25 27.6855 10.7227 28.125 10.1953 28.125H6.67969C6.06445 28.125 5.625 27.6855 5.625 27.0703V23.5547C5.625 23.0273 6.06445 22.5 6.67969 22.5H10.1953C10.7227 22.5 11.25 23.0273 11.25 23.5547V27.0703ZM11.25 18.6328C11.25 19.248 10.7227 19.6875 10.1953 19.6875H6.67969C6.06445 19.6875 5.625 19.248 5.625 18.6328V15.1172C5.625 14.5898 6.06445 14.0625 6.67969 14.0625H10.1953C10.7227 14.0625 11.25 14.5898 11.25 15.1172V18.6328ZM22.5 35.5078C22.5 36.123 21.9727 36.5625 21.4453 36.5625H17.9297C17.3145 36.5625 16.875 36.123 16.875 35.5078V31.9922C16.875 31.4648 17.3145 30.9375 17.9297 30.9375H21.4453C21.9727 30.9375 22.5 31.4648 22.5 31.9922V35.5078ZM22.5 27.0703C22.5 27.6855 21.9727 28.125 21.4453 28.125H17.9297C17.3145 28.125 16.875 27.6855 16.875 27.0703V23.5547C16.875 23.0273 17.3145 22.5 17.9297 22.5H21.4453C21.9727 22.5 22.5 23.0273 22.5 23.5547V27.0703ZM22.5 18.6328C22.5 19.248 21.9727 19.6875 21.4453 19.6875H17.9297C17.3145 19.6875 16.875 19.248 16.875 18.6328V15.1172C16.875 14.5898 17.3145 14.0625 17.9297 14.0625H21.4453C21.9727 14.0625 22.5 14.5898 22.5 15.1172V18.6328ZM36.5625 27.0703C36.5625 27.6855 36.0352 28.125 35.5078 28.125H31.9922C31.377 28.125 30.9375 27.6855 30.9375 27.0703V23.5547C30.9375 23.0273 31.377 22.5 31.9922 22.5H35.5078C36.0352 22.5 36.5625 23.0273 36.5625 23.5547V27.0703ZM36.5625 18.6328C36.5625 19.248 36.0352 19.6875 35.5078 19.6875H31.9922C31.377 19.6875 30.9375 19.248 30.9375 18.6328V15.1172C30.9375 14.5898 31.377 14.0625 31.9922 14.0625H35.5078C36.0352 14.0625 36.5625 14.5898 36.5625 15.1172V18.6328ZM36.5625 10.1953C36.5625 10.8105 36.0352 11.25 35.5078 11.25H31.9922C31.377 11.25 30.9375 10.8105 30.9375 10.1953V6.67969C30.9375 6.15234 31.377 5.625 31.9922 5.625H35.5078C36.0352 5.625 36.5625 6.15234 36.5625 6.67969V10.1953ZM50.625 35.5078C50.625 36.123 50.0977 36.5625 49.5703 36.5625H46.0547C45.4395 36.5625 45 36.123 45 35.5078V31.9922C45 31.4648 45.4395 30.9375 46.0547 30.9375H49.5703C50.0977 30.9375 50.625 31.4648 50.625 31.9922V35.5078ZM50.625 27.0703C50.625 27.6855 50.0977 28.125 49.5703 28.125H46.0547C45.4395 28.125 45 27.6855 45 27.0703V23.5547C45 23.0273 45.4395 22.5 46.0547 22.5H49.5703C50.0977 22.5 50.625 23.0273 50.625 23.5547V27.0703Z" fill="#2C79CA"/>
</svg>
