<svg width="17" height="17" viewBox="0 0 17 17" fill="none" xmlns="http://www.w3.org/2000/svg">
<path d="M8.68763 6.03347C7.1917 6.03347 5.97092 7.25426 5.97092 8.75018C5.97092 10.2461 7.1917 11.4669 8.68763 11.4669C10.1836 11.4669 11.4043 10.2461 11.4043 8.75018C11.4043 7.25426 10.1836 6.03347 8.68763 6.03347ZM16.8357 8.75018C16.8357 7.62518 16.8459 6.51037 16.7827 5.38741C16.7196 4.08306 16.422 2.92545 15.4682 1.97165C14.5124 1.01581 13.3568 0.72029 12.0524 0.657111C10.9274 0.593932 9.81263 0.604122 8.68966 0.604122C7.56466 0.604122 6.44986 0.593932 5.32689 0.657111C4.02255 0.72029 2.86494 1.01784 1.91113 1.97165C0.95529 2.92749 0.659774 4.08306 0.596595 5.38741C0.533415 6.51241 0.543605 7.62722 0.543605 8.75018C0.543605 9.87314 0.533415 10.99 0.596595 12.113C0.659774 13.4173 0.957328 14.5749 1.91113 15.5287C2.86698 16.4846 4.02255 16.7801 5.32689 16.8433C6.45189 16.9064 7.5667 16.8962 8.68966 16.8962C9.81466 16.8962 10.9295 16.9064 12.0524 16.8433C13.3568 16.7801 14.5144 16.4825 15.4682 15.5287C16.424 14.5729 16.7196 13.4173 16.7827 12.113C16.848 10.99 16.8357 9.87518 16.8357 8.75018ZM8.68763 12.9302C6.37445 12.9302 4.5076 11.0634 4.5076 8.75018C4.5076 6.437 6.37445 4.57015 8.68763 4.57015C11.0008 4.57015 12.8677 6.437 12.8677 8.75018C12.8677 11.0634 11.0008 12.9302 8.68763 12.9302ZM13.0389 5.37518C12.4988 5.37518 12.0626 4.93904 12.0626 4.39896C12.0626 3.85888 12.4988 3.42274 13.0389 3.42274C13.5789 3.42274 14.0151 3.85888 14.0151 4.39896C14.0152 4.5272 13.9901 4.65422 13.9411 4.77273C13.8921 4.89125 13.8202 4.99893 13.7295 5.08961C13.6388 5.18029 13.5311 5.2522 13.4126 5.3012C13.2941 5.3502 13.1671 5.37534 13.0389 5.37518Z" fill="#2C79CA"/>
</svg>
