<svg width="160" height="40" viewBox="0 0 160 40" fill="none" xmlns="http://www.w3.org/2000/svg">
<path d="M0 25.6917V0.000488281H8.8291V24.9142C8.8291 27.8687 10.2128 30.3901 14.9019 30.3901C19.5909 30.3901 20.9746 27.8798 20.9746 24.9142V0.000488281H29.8037V25.6917C29.8037 34.0666 23.4015 39.0982 14.8909 39.0982C6.38023 39.0982 0 34.0666 0 25.6917Z" fill="white"/>
<path d="M66.2292 0V39.0977H59.6074L44.6946 17.8717V39.0977H35.8655V0H42.4873L57.4001 21.2261V0H66.2292Z" fill="white"/>
<path d="M81.0981 0V39.0977H72.269V0H81.0981Z" fill="white"/>
<path d="M87.4015 0.778489C90.5532 0.778489 93.4303 1.78925 95.5278 3.63307C97.6911 5.54353 98.8442 8.15374 98.8442 11.1638C98.8442 12.63 98.5697 13.974 98.0206 15.1847C97.5045 16.3287 96.7358 17.3506 95.7474 18.2281L94.9677 18.9167L95.8353 19.4721C97.208 20.3496 98.2841 21.4714 99.0309 22.8154C99.8215 24.2371 100.228 25.8588 100.228 27.636C100.228 30.7349 99.0528 33.4118 96.8346 35.3667C94.6932 37.2549 91.7392 38.299 88.5106 38.299H73.0377V0.778489H87.4015ZM80.3294 16.0844H81.0981H87.3905C89.7845 16.0844 91.5305 14.2961 91.5305 11.8414C91.5305 9.34223 89.8284 7.59838 87.3905 7.59838H81.0981H80.3294V8.37589V15.2957V16.0844ZM80.3294 31.4902H81.0981H88.4997C91.1023 31.4902 92.9142 29.6353 92.9142 26.9695C92.9142 24.3038 91.1023 22.4489 88.4997 22.4489H81.0981H80.3294V23.2264V30.7127V31.4902ZM87.4015 0.000976562H72.269V39.0987H88.4997C95.407 39.0987 100.975 34.578 100.975 27.6471C100.975 23.6818 99.0968 20.6606 96.2306 18.8279C98.3281 16.9841 99.6019 14.4183 99.6019 11.1749C99.6019 4.41058 94.1331 0.000976562 87.4015 0.000976562ZM81.0981 15.3069V8.37589H87.3905C89.4331 8.37589 90.7618 9.83095 90.7618 11.8414C90.7618 13.8518 89.3782 15.3069 87.3905 15.3069H81.0981ZM81.0981 30.7127V23.2264H88.4997C90.7069 23.2264 92.1455 24.7925 92.1455 26.9695C92.1455 29.1466 90.7069 30.7127 88.4997 30.7127H81.0981Z" fill="white"/>
<path d="M130.548 0.778V7.82004H115.854H115.086V8.59755V15.0731V15.8506H115.854H130.548V22.7816H115.854H115.086V23.5591V30.479V31.2565H115.854H130.548V38.3207H107.794V0.778H130.548ZM131.316 0.000488281H107.025V39.0982H131.316V30.5012H115.854V23.5813H131.316V15.0953H115.854V8.59755H131.316V0.000488281Z" fill="white"/>
<path d="M145.428 0.778V30.4901V31.2676H146.196H159.231V38.3207H138.125V0.778H145.428ZM146.196 0.000488281H137.356V39.0982H160V30.5012H146.196V0.000488281Z" fill="white"/>
</svg>
