<svg width="114" height="28" viewBox="0 0 114 28" fill="none" xmlns="http://www.w3.org/2000/svg">
<path d="M0 18.0905V0H6.25872V17.543C6.25872 19.6235 7.23834 21.3989 10.5582 21.3989C13.878 21.3989 14.8577 19.6313 14.8577 17.543V0H21.1086V18.0905C21.1086 23.9877 16.5759 27.5307 10.5504 27.5307C4.52494 27.5307 0 23.9877 0 18.0905Z" fill="#2C79CA"/>
<path d="M46.8899 0V27.5307H42.2017L31.6435 12.5844V27.5307H25.3848V0H30.073L40.6312 14.9464V0H46.8899Z" fill="#2C79CA"/>
<path d="M57.4248 0V27.5307H51.1738V0H57.4248Z" fill="#2C79CA"/>
<path d="M61.8797 0.547486C64.1111 0.547486 66.1481 1.25922 67.6331 2.55754C69.1647 3.9028 69.9811 5.74078 69.9811 7.86034C69.9811 8.89274 69.7867 9.83911 69.3979 10.6916C69.0325 11.4972 68.4883 12.2168 67.7886 12.8346L67.2365 13.3196L67.8507 13.7106C68.8226 14.3285 69.5845 15.1184 70.1132 16.0648C70.673 17.0659 70.9607 18.2078 70.9607 19.4592C70.9607 21.6413 70.1288 23.5263 68.5583 24.9028C67.0422 26.2324 64.9508 26.9676 62.665 26.9676H51.7103V0.531843H61.8797V0.547486ZM56.8805 11.3251H57.4247H61.8797C63.5746 11.3251 64.8108 10.0659 64.8108 8.33743C64.8108 6.57766 63.6057 5.34972 61.8797 5.34972H57.4247H56.8805V5.89721V10.7698V11.3251ZM56.8805 22.181H57.4247H62.665C64.5076 22.181 65.7904 20.8749 65.7904 18.9978C65.7904 17.1207 64.5076 15.8145 62.665 15.8145H57.4247H56.8805V16.362V21.6335V22.181ZM61.8797 0H51.166V27.5307H62.6572C67.5475 27.5307 71.4894 24.3475 71.4894 19.467C71.4894 16.6749 70.1599 14.5475 68.1307 13.257C69.6156 11.9587 70.5175 10.152 70.5175 7.86816C70.5175 3.10503 66.6457 0 61.8797 0ZM57.4247 10.7777V5.90503H61.8797C63.3258 5.90503 64.2666 6.92961 64.2666 8.34525C64.2666 9.7609 63.2869 10.7855 61.8797 10.7855H57.4247V10.7777ZM57.4247 21.6335V16.362H62.665C64.2277 16.362 65.2462 17.4648 65.2462 18.9978C65.2462 20.5307 64.2277 21.6335 62.665 21.6335H57.4247Z" fill="#2C79CA"/>
<path d="M92.4269 0.547486V5.51397H82.0242H81.48V6.06145V10.6212V11.1687H82.0242H92.4269V16.0492H82.0242H81.48V16.5967V21.4693V22.0168H82.0242H92.4269V26.9754H76.3175V0.539665H92.4269V0.547486ZM92.9712 0H75.7733V27.5307H92.9712V21.4771H82.0242V16.6045H92.9712V10.6291H82.0242V6.06145H92.9712V0Z" fill="#2C79CA"/>
<path d="M102.962 0.547486V21.4693V22.0168H103.506H112.735V26.9754H97.7916V0.539665H102.962V0.547486ZM103.506 0H97.2473V27.5307H113.279V21.4771H103.506V0Z" fill="#2C79CA"/>
</svg>
