<svg width="11" height="19" viewBox="0 0 11 19" fill="none" xmlns="http://www.w3.org/2000/svg">
<path d="M8.75006 0.25H2.08339C1.53086 0.25 1.00096 0.469493 0.610255 0.860194C0.219554 1.25089 6.10352e-05 1.7808 6.10352e-05 2.33333V16.5C6.10352e-05 17.0525 0.219554 17.5824 0.610255 17.9731C1.00096 18.3638 1.53086 18.5833 2.08339 18.5833H8.75006C9.3026 18.5833 9.8325 18.3638 10.2232 17.9731C10.6139 17.5824 10.8334 17.0525 10.8334 16.5V2.33333C10.8334 1.7808 10.6139 1.25089 10.2232 0.860194C9.8325 0.469493 9.3026 0.25 8.75006 0.25ZM5.41673 17.75C4.72506 17.75 4.16673 17.1917 4.16673 16.5C4.16673 15.8083 4.72506 15.25 5.41673 15.25C6.10839 15.25 6.66673 15.8083 6.66673 16.5C6.66673 17.1917 6.10839 17.75 5.41673 17.75ZM9.16673 14.4167H1.66673V2.75H9.16673V14.4167Z" fill="#BBE1FA"/>
</svg>
