<svg width="15" height="16" viewBox="0 0 15 16" fill="none" xmlns="http://www.w3.org/2000/svg">
<path d="M0.556171 0.975999L3.60048 0.272558C3.92247 0.184628 4.27374 0.360488 4.4201 0.682899L5.82517 3.96563C5.94226 4.25873 5.85444 4.58114 5.62026 4.78631L3.83466 6.25181C4.88846 8.47938 6.73261 10.3552 9.01584 11.4397L10.4794 9.65178C10.6844 9.4173 11.0063 9.32937 11.2991 9.44661L14.5776 10.8535C14.8996 11 15.0459 11.3518 14.9874 11.6742L14.2848 14.7224C14.197 15.0448 13.9336 15.25 13.5823 15.25C6.08862 15.25 0 9.18282 0 1.65013C0 1.32772 0.234178 1.06393 0.556171 0.975999Z" fill="#2C79CA"/>
</svg>
