<svg width="15" height="18" viewBox="0 0 15 18" fill="none" xmlns="http://www.w3.org/2000/svg">
<path d="M0 15.7144C0 16.6184 0.703125 17.3216 1.60714 17.3216H13.3929C14.2634 17.3216 15 16.6184 15 15.7144V6.60728H0V15.7144ZM10.7143 9.15193C10.7143 8.95103 10.8817 8.75014 11.1161 8.75014H12.4554C12.6562 8.75014 12.8571 8.95103 12.8571 9.15193V10.4912C12.8571 10.7256 12.6562 10.893 12.4554 10.893H11.1161C10.8817 10.893 10.7143 10.7256 10.7143 10.4912V9.15193ZM10.7143 13.4376C10.7143 13.2367 10.8817 13.0359 11.1161 13.0359H12.4554C12.6562 13.0359 12.8571 13.2367 12.8571 13.4376V14.7769C12.8571 15.0113 12.6562 15.1787 12.4554 15.1787H11.1161C10.8817 15.1787 10.7143 15.0113 10.7143 14.7769V13.4376ZM6.42857 9.15193C6.42857 8.95103 6.59598 8.75014 6.83036 8.75014H8.16964C8.37054 8.75014 8.57143 8.95103 8.57143 9.15193V10.4912C8.57143 10.7256 8.37054 10.893 8.16964 10.893H6.83036C6.59598 10.893 6.42857 10.7256 6.42857 10.4912V9.15193ZM6.42857 13.4376C6.42857 13.2367 6.59598 13.0359 6.83036 13.0359H8.16964C8.37054 13.0359 8.57143 13.2367 8.57143 13.4376V14.7769C8.57143 15.0113 8.37054 15.1787 8.16964 15.1787H6.83036C6.59598 15.1787 6.42857 15.0113 6.42857 14.7769V13.4376ZM2.14286 9.15193C2.14286 8.95103 2.31027 8.75014 2.54464 8.75014H3.88393C4.08482 8.75014 4.28571 8.95103 4.28571 9.15193V10.4912C4.28571 10.7256 4.08482 10.893 3.88393 10.893H2.54464C2.31027 10.893 2.14286 10.7256 2.14286 10.4912V9.15193ZM2.14286 13.4376C2.14286 13.2367 2.31027 13.0359 2.54464 13.0359H3.88393C4.08482 13.0359 4.28571 13.2367 4.28571 13.4376V14.7769C4.28571 15.0113 4.08482 15.1787 3.88393 15.1787H2.54464C2.31027 15.1787 2.14286 15.0113 2.14286 14.7769V13.4376ZM13.3929 2.32157H11.7857V0.714425C11.7857 0.446568 11.5179 0.178711 11.25 0.178711H10.1786C9.87723 0.178711 9.64286 0.446568 9.64286 0.714425V2.32157H5.35714V0.714425C5.35714 0.446568 5.08929 0.178711 4.82143 0.178711H3.75C3.44866 0.178711 3.21429 0.446568 3.21429 0.714425V2.32157H1.60714C0.703125 2.32157 0 3.05818 0 3.92871V5.53585H15V3.92871C15 3.05818 14.2634 2.32157 13.3929 2.32157Z" fill="#2C79CA"/>
</svg>
