<svg width="18" height="11" viewBox="0 0 18 11" fill="none" xmlns="http://www.w3.org/2000/svg">
<path d="M17.0252 1.27607C17.147 0.871717 17.0252 0.575195 16.4496 0.575195H14.5426C14.0574 0.575195 13.8357 0.831717 13.7139 1.11346C13.7139 1.11346 12.7443 3.4778 11.3704 5.01085C10.927 5.45693 10.7243 5.5978 10.4826 5.5978C10.3617 5.5978 10.1861 5.45693 10.1861 5.05259V1.27607C10.1861 0.790848 10.0461 0.575195 9.64174 0.575195H6.64522C6.34261 0.575195 6.16 0.799543 6.16 1.01346C6.16 1.47259 6.84696 1.57867 6.91739 2.87259V5.67954C6.91739 6.29433 6.80696 6.4065 6.56348 6.4065C5.91739 6.4065 4.34522 4.03346 3.41217 1.31693C3.23043 0.789108 3.04696 0.576065 2.56 0.576065H0.653913C0.108696 0.576065 0 0.832587 0 1.11433C0 1.62041 0.646087 4.12476 3.00957 7.43693C4.58522 9.69867 6.80348 10.9248 8.82435 10.9248C10.0357 10.9248 10.1852 10.6526 10.1852 10.183V8.47346C10.1852 7.92911 10.3009 7.81954 10.6843 7.81954C10.9661 7.81954 11.4513 7.96215 12.5826 9.05172C13.8748 10.3439 14.0887 10.9239 14.8148 10.9239H16.7209C17.2652 10.9239 17.5374 10.6517 17.3809 10.1143C17.2096 9.57954 16.5922 8.80128 15.773 7.88041C15.3278 7.3552 14.6626 6.78998 14.46 6.50737C14.1774 6.14302 14.2591 5.98215 14.46 5.65867C14.4609 5.65954 16.7835 2.38824 17.0252 1.27607Z" fill="#2C79CA"/>
</svg>
