<svg width="20" height="16" viewBox="0 0 20 16" fill="none" xmlns="http://www.w3.org/2000/svg">
<path d="M19.6094 5.21094C18.7109 5.91406 17.5781 6.77344 13.5938 9.66406C12.8125 10.25 11.3672 11.5391 10 11.5391C8.59375 11.5391 7.1875 10.25 6.36719 9.66406C2.38281 6.77344 1.25 5.91406 0.351562 5.21094C0.195312 5.09375 0 5.21094 0 5.40625V13.375C0 14.4297 0.820312 15.25 1.875 15.25H18.125C19.1406 15.25 20 14.4297 20 13.375V5.40625C20 5.21094 19.7656 5.09375 19.6094 5.21094ZM10 10.25C10.8984 10.2891 12.1875 9.11719 12.8516 8.64844C18.0469 4.89844 18.4375 4.54688 19.6094 3.60938C19.8438 3.45312 20 3.17969 20 2.86719V2.125C20 1.10938 19.1406 0.25 18.125 0.25H1.875C0.820312 0.25 0 1.10938 0 2.125V2.86719C0 3.17969 0.117188 3.45312 0.351562 3.60938C1.52344 4.54688 1.91406 4.89844 7.10938 8.64844C7.77344 9.11719 9.0625 10.2891 10 10.25Z" fill="#2C79CA"/>
</svg>
